PathFileType	4	(X/Y/Z)	Walk1_0-155.trc
DataRate	CameraRate	NumFrames	NumMarkers	Units	OrigDataRate	OrigDataStartFrame	OrigNumFrames
30	30	5	22	m	30	58	155
Frame#	Time	Hip			RHip			RKnee			RAnkle			RBigToe			RSmallToe			RHeel			LHip			LKnee			LAnkle			LBigToe			LSmallToe			LHeel			Neck			Head			Nose			RShoulder			RElbow			RWrist			LShoulder			LElbow			LWrist		
		X1	Y1	Z1	X2	Y2	Z2	X3	Y3	Z3	X4	Y4	Z4	X5	Y5	Z5	X6	Y6	Z6	X7	Y7	Z7	X8	Y8	Z8	X9	Y9	Z9	X10	Y10	Z10	X11	Y11	Z11	X12	Y12	Z12	X13	Y13	Z13	X14	Y14	Z14	X15	Y15	Z15	X16	Y16	Z16	X17	Y17	Z17	X18	Y18	Z18	X19	Y19	Z19	X20	Y20	Z20	X21	Y21	Z21	X22	Y22	Z22
59	1.9666666666666663	-1.441527811507399	0.8631336297744183	0.3492806680204724	-1.4407043813187332	0.848790676346493	0.45022906770928	-1.345620063084094	0.5045232282759464	0.47752181276790645	-1.6884386462953322	0.2524610191392381	0.4479237455929465	-1.648903347863212	0.021697097659682238	0.46248107476829725	-1.6790633906558974	0.05917700728947678	0.48876026128852607	-1.771274531834519	0.24490687431206504	0.43257914692175065	-1.43449527305166	0.8524690425833703	0.23599396419672314	-1.3300010071372763	0.4984121353503214	0.2636102098707861	-1.3507135096987333	0.09681926443117159	0.2856626943540645	-1.1340132984058153	0.03036698693763698	0.30329094230717973	-1.171948024476831	0.029510605993271117	0.2396509203710083	-1.4007674990821501	0.0200017497392684	0.30390843212305263	-1.4815554881841493	1.5524837348855063	0.3234795465857579	-1.4288025584276585	1.8007064745320946	0.33115235181764957	-1.3353684145947713	1.6723426534155474	0.331217998867296	-1.5128015259555203	1.437394941525682	0.5133771639211877	-1.4570934136336617	1.1220334620384413	0.5747517386495244	-1.3727807363333733	0.8639115046548882	0.6105890975258963	-1.530233329819646	1.4278975186531604	0.1167375617862896	-1.4755726765656503	1.1087349387155956	0.10489762184919736	-1.4233217993100213	0.8561318964818116	0.0810054103442707
60	2.0	-1.40726482652756	0.871327878906088	0.3471084061212517	-1.400947893853595	0.8554634610983747	0.44822472252991785	-1.2659217385383796	0.5218396915280962	0.4742555599804666	-1.6019027522336855	0.26346305894745425	0.4454155675391267	-1.5480004550141055	0.03742481174966162	0.46746034381965407	-1.581448058108554	0.08018486611959742	0.4955974969857228	-1.6835262480897075	0.25408839689637835	0.4352977451335302	-1.4039095829471018	0.8566406343499651	0.2332674888448243	-1.3243109811580365	0.49560292108683507	0.2589794576724054	-1.3528140836775078	0.09647488982488302	0.2835611915770175	-1.1344771090185943	0.0289528155601715	0.30285561988164766	-1.173274983994906	0.028143581639173635	0.23982758727095585	-1.3995381719832627	0.022243524111820904	0.30042682710486657	-1.4456333462843642	1.5608346943256826	0.3210547024279158	-1.3938933733902685	1.8079146072980454	0.32965693566466847	-1.2990078625979253	1.6798507520984811	0.3286603609238615	-1.480053516744177	1.4445250899862592	0.5118227149881877	-1.4357790374519084	1.128367737157251	0.5694140271757361	-1.3667226098134606	0.8671864247915444	0.6081041958012319	-1.4927926649637464	1.4365768211132097	0.11458283557652273	-1.4265533889140587	1.118647437648303	0.10120262255741681	-1.3608850345658696	0.8687934013501724	0.0791296414531874
61	2.033333333333333	-1.374744729646245	0.8790812106055891	0.3450229641680194	-1.3631013096891844	0.8616784498164468	0.44716724234426836	-1.1956288786969858	0.5397660707335513	0.4687814571785709	-1.5089345556487048	0.2628200445065861	0.4426324249471391	-1.4306942659071586	0.05428258277659904	0.4697807949793644	-1.4690547803764133	0.09734997750992483	0.5005397363633141	-1.5873704099868942	0.24646854174588728	0.4369426079270683	-1.3752574140450342	0.8602570806476775	0.23096618173553213	-1.318583471112146	0.49374435877348133	0.25613195984986814	-1.3546032951381393	0.09705917884398142	0.28178478305407106	-1.135546181117236	0.027832986614948013	0.30193305675701576	-1.1752386382061246	0.0267982547382565	0.2396793928361394	-1.3977245628131705	0.02535663843968024	0.29677990201118826	-1.4096761172679126	1.568192853232759	0.3193361062998763	-1.3599577101860407	1.8158370021378123	0.32870784890757543	-1.26223247451362	1.6857950142589821	0.32676319383712216	-1.4471627186209035	1.4508974271420636	0.5105521179884114	-1.4149081898764135	1.1348616619292498	0.565661650744436	-1.3592517319568043	0.8723907356556319	0.6053589320912648	-1.4551041366605972	1.444648632835825	0.11345440393088868	-1.3780279569639617	1.1293499033098333	0.09561312959198118	-1.298136130723865	0.882774958654781	0.07728045925120626
62	2.066666666666667	-1.343000567028807	0.8856017007501961	0.34291324197382467	-1.3269779306534029	0.8673070572592937	0.44689160680171464	-1.1362517038092173	0.5562631739096158	0.46150790108712475	-1.410832466234906	0.2513724849663991	0.43988501730546914	-1.303635769428509	0.07003599410328738	0.46863520936554803	-1.3463845620462425	0.10753143091632365	0.5030295721346832	-1.4839890896003398	0.224194654830219	0.43750857925707515	-1.3475377290010422	0.8633088359906996	0.22925870401553594	-1.3110419741667703	0.49277277884540516	0.25520805434410243	-1.3554954513790278	0.0977293212203651	0.28120632861994804	-1.1373955365445003	0.026457495308244296	0.30064098013249735	-1.1779887139916125	0.02504872211398703	0.2394297330462899	-1.3960613946719382	0.028293586684766676	0.2940442055446938	-1.3735480808799634	1.5738335854117989	0.31806131534359167	-1.3253467149096188	1.8233691614350895	0.32855894423123705	-1.2250715940485797	1.689680394766841	0.3256279768716569	-1.4139372659795735	1.4557724463433408	0.5094806274251816	-1.394069513957045	1.1407305342526273	0.5632725512027617	-1.3499717979788064	0.8783214067875296	0.6025756460726596	-1.4172103774641658	1.4512206490919342	0.11303405826022903	-1.3309589329527054	1.139240615393143	0.08934628681379182	-1.2357791167979748	0.8970702669118005	0.07539654781121659
63	2.1	-1.3112694525779722	0.8901688543238716	0.3407076297314988	-1.2923236747685865	0.871984963338981	0.44700817442302193	-1.0877826294601372	0.5692936989636418	0.45291581785749174	-1.3084484481860956	0.23192034266745545	0.43745441479873187	-1.1720749012172338	0.0819559025322124	0.4643053866040383	-1.216956725196179	0.10977169835956638	0.5028047581102442	-1.374341606755529	0.1920650630200143	0.43718208949918963	-1.3199420383986462	0.8657372157893861	0.22813489653975358	-1.3009358917277627	0.4921855556617927	0.25587864558594436	-1.3552461162774492	0.09772519522530967	0.28243518359492437	-1.1397773988256252	0.02458126398908071	0.2991933820065956	-1.181630037116552	0.02273725896716656	0.23930832319270184	-1.3949524001898614	0.03032037220097079	0.29323596504281996	-1.3370612462031966	1.5773417471963358	0.3170725626071913	-1.2893808609974413	1.8292103408375853	0.3290146932648485	-1.1875209693205935	1.69123134712333	0.3252651527916933	-1.3801476081180726	1.4586615613082303	0.5086046696934929	-1.3727136941376663	1.1451975423204495	0.5618147496858026	-1.3384666545579478	0.8835499243923789	0.5999263006474242	-1.379172031287982	1.4557058512478358	0.1129276127496378	-1.286097534048147	1.1469745889176606	0.0834616096691379	-1.1743811062335912	0.9105997075429142	0.07391460806335359
